<?xml version="1.0" encoding="iso-8859-1"?>
<!-- Generator: Adobe Illustrator 19.0.0, SVG Export Plug-In . SVG Version: 6.00 Build 0)  -->
<svg version="1.1" id="Layer_1" xmlns="http://www.w3.org/2000/svg" xmlns:xlink="http://www.w3.org/1999/xlink" x="0px" y="0px"
	 viewBox="0 0 295.238 295.238" style="enable-background:new 0 0 295.238 295.238;" xml:space="preserve">
<g>
	<g>
		<path style="fill:#333333;" d="M295.238,135.715h-76.671c-2.214-10.852-11.829-19.048-23.329-19.048h-38.095v9.524h38.095
			c7.876,0,14.286,6.41,14.286,14.286c0,7.876-6.41,14.286-14.286,14.286H23.81c-7.876,0-14.286-6.41-14.286-14.286
			c0-7.876,6.41-14.286,14.286-14.286h38.095v-9.524H23.81c-13.129,0-23.81,10.681-23.81,23.81c0,7.748,3.776,14.576,9.524,18.924
			v133.457h9.524v-40.886l17.076,17.076l-15.681,15.681l6.733,6.733l15.681-15.681l15.681,15.681l6.733-6.733l-15.681-15.68
			l26.6-26.6l26.6,26.6L87.109,284.73l6.733,6.733l15.681-15.681l15.681,15.681l6.733-6.733l-15.681-15.681l26.6-26.6l26.6,26.6
			l-15.681,15.681l6.733,6.733l15.681-15.681l15.681,15.681l6.733-6.733l-15.681-15.681L200,251.971v40.886h9.524V159.4
			c4.538-3.433,7.867-8.39,9.043-14.162h76.671V135.715z M109.524,195.648l-26.6-26.6l4.762-4.762h43.676l4.762,4.762
			L109.524,195.648z M142.857,175.782l26.6,26.6l-26.6,26.6l-26.6-26.6L142.857,175.782z M102.79,202.382l-26.6,26.6l-26.6-26.6
			l26.6-26.6L102.79,202.382z M64.695,164.286l4.762,4.762l-26.6,26.6l-23.81-23.81v-7.552h4.762H64.695z M19.048,185.305
			l17.076,17.076l-17.076,17.076V185.305z M42.857,262.315l-23.81-23.81v-5.581l23.81-23.81l26.6,26.6L42.857,262.315z
			 M109.524,262.315l-26.6-26.6l26.6-26.6l26.6,26.6L109.524,262.315z M176.19,262.315l-26.6-26.6l26.6-26.6l23.81,23.81v5.581
			L176.19,262.315z M182.924,202.382L200,185.305v34.152L182.924,202.382z M200,164.286v7.552l-23.81,23.81l-26.6-26.6l4.762-4.762
			h40.886H200z"/>
		<circle style="fill:#F9BA48;" cx="109.524" cy="73.81" r="71.429"/>
		<path style="fill:#333333;" d="M114.286,107.144h-9.524c-7.876,0-14.286-6.41-14.286-14.286h-9.524
			c0,13.129,10.681,23.81,23.81,23.81v4.762h9.524v-4.762c13.129,0,23.81-10.681,23.81-23.81s-10.681-23.81-23.81-23.81h-9.524
			c-7.876,0-14.286-6.41-14.286-14.286s6.41-14.286,14.286-14.286h9.524c7.876,0,14.286,6.41,14.286,14.286h9.524
			c0-13.129-10.681-23.81-23.81-23.81v-4.761h-9.524v4.762c-13.129,0-23.81,10.681-23.81,23.81s10.681,23.81,23.81,23.81h9.524
			c7.876,0,14.286,6.41,14.286,14.286S122.162,107.144,114.286,107.144z"/>
	</g>
</g>
<g>
</g>
<g>
</g>
<g>
</g>
<g>
</g>
<g>
</g>
<g>
</g>
<g>
</g>
<g>
</g>
<g>
</g>
<g>
</g>
<g>
</g>
<g>
</g>
<g>
</g>
<g>
</g>
<g>
</g>
</svg>
